# xmcd
#
# Track frame offsets: 
#        150
#        40414
#        75406
#        109479
#        144542
#        187959
#        221566
#        263022
#        301059
#
# Disc length: 4442 seconds
#
# Revision: 0
# Processed by: cddbd v1.5.2PL0 Copyright (c) Steve Scherf et al.
# Submitted via: ExactAudioCopy v0.95b4
#
DISCID=76115809
DTITLE=Sensorica - The Best Singles Of...
DYEAR=2008
DGENRE=Trance
TTITLE0=Kanape (original mix)
TTITLE1=The Artifact
TTITLE2=Only One (rave mix)
TTITLE3=Safe To Dream (original mix)
TTITLE4=Turning Back
TTITLE5=Neosphere
TTITLE6=Train Of Trought (album version)
TTITLE7=Authorization
TTITLE8=Impression
EXTD=
EXTT0=
EXTT1=
EXTT2=
EXTT3=
EXTT4=
EXTT5=
EXTT6=
EXTT7=
EXTT8=
PLAYORDER=
